<svg xmlns="http://www.w3.org/2000/svg" width="50.002" height="50" viewBox="0 0 50.002 50"><path d="M-17550-2476a24.847,24.847,0,0,1-9.73-1.964,24.883,24.883,0,0,1-7.945-5.357,24.853,24.853,0,0,1-5.357-7.946A24.817,24.817,0,0,1-17575-2501a24.811,24.811,0,0,1,1.967-9.731,24.825,24.825,0,0,1,5.357-7.947,24.886,24.886,0,0,1,7.945-5.358A24.839,24.839,0,0,1-17550-2526a24.839,24.839,0,0,1,9.73,1.965,24.943,24.943,0,0,1,7.947,5.358,24.825,24.825,0,0,1,5.357,7.947A24.811,24.811,0,0,1-17525-2501a24.815,24.815,0,0,1-1.967,9.732,24.821,24.821,0,0,1-5.357,7.946,24.94,24.94,0,0,1-7.947,5.357A24.847,24.847,0,0,1-17550-2476Zm-1.441-31.285V-2489h4.2v-22.266h-6.338l-2.453,3.979Z" transform="translate(17575.002 2526.002)"/></svg>