<svg xmlns="http://www.w3.org/2000/svg" xmlns:xlink="http://www.w3.org/1999/xlink" width="153" height="143" viewBox="0 0 153 143">
  <defs>
    <path id="designfiles-a" d="M30.2678697,0.165432501 L84.253509,11.6404344 C85.930126,11.9968103 87.3981108,13.0010162 88.3379307,14.434469 L108.263061,44.8251146 C109.213667,46.2750182 109.545639,48.0446068 109.185173,49.7404653 L93.0894546,125.464868 C92.2282561,129.516488 88.2456299,132.102835 84.1940099,131.241637 L5.94220183,114.608702 C1.8905818,113.747503 -0.69576592,109.764877 0.165432501,105.713257 L21.372425,5.94220183 C22.2336234,1.8905818 26.2162496,-0.69576592 30.2678697,0.165432501 Z"/>
  </defs>
  <g fill="none" fill-rule="evenodd" transform="translate(2.068 2.318)">
    <g transform="translate(23.701 8.978)">
      <mask id="designfiles-b" fill="#fff">
        <use xlink:href="#designfiles-a"/>
      </mask>
      <use fill="#FFF" fill-rule="nonzero" xlink:href="#designfiles-a"/>
      <path fill="#DFC5B5" fill-rule="nonzero" d="M22.4847044,4.95344609 L40.0638528,38.3344828 C40.1873088,38.5689224 40.223089,38.84171 40.1648117,39.1041926 C40.0290281,39.7157655 39.4289011,40.1113696 38.8243906,39.9877992 L16.0144214,35.3245348 L22.372425,5.41156559 C22.4053467,5.25668087 22.44283,5.10393746 22.4847044,4.95344609 Z" mask="url(#designfiles-b)"/>
      <path fill="#DFC5B5" fill-rule="nonzero" d="M107.013772,96.998 L103.089455,115.464868 C102.822434,116.721099 102.255336,117.836466 101.479143,118.751883 L82.8503085,106.44591 C82.3354776,106.105834 82.1908581,105.401746 82.527292,104.873285 C82.6716869,104.646473 82.8898772,104.478884 83.1429477,104.400407 L107.013772,96.998 Z" mask="url(#designfiles-b)" transform="rotate(7 94.68 107.875)"/>
      <path fill="#DFC5B5" fill-rule="nonzero" d="M-2.605,96.926 L23.872909,103.256749 C24.4730047,103.400234 24.8497149,104.012397 24.7143147,104.624055 C24.6562019,104.886574 24.5084891,105.118683 24.2975215,105.278982 L12.901,113.937 L1.94220183,111.608702 C-2.1094182,110.747503 -4.69576592,106.764877 -3.8345675,102.713257 L-2.605,96.926 Z" mask="url(#designfiles-b)"/>
    </g>
    <path fill="#1A1A1A" fill-rule="nonzero" d="M53.9691956,9.14342161 L107.954835,20.6184235 C109.631452,20.9747994 111.099437,21.9790053 112.039257,23.4124581 L131.964387,53.8031037 C132.914993,55.2530073 133.246965,57.0225959 132.886499,58.7184545 L116.79078,134.442857 C115.929582,138.494477 111.946956,141.080825 107.895336,140.219626 L29.6435277,123.586691 C25.5919077,122.725492 23.00556,118.742866 23.8667584,114.691246 L45.0737509,14.9201909 C45.9349493,10.8685709 49.9175756,8.28222318 53.9691956,9.14342161 Z M48.0081937,15.543926 L26.8012012,115.314981 C26.2844822,117.745953 27.8362908,120.135529 30.2672628,120.652248 L108.519071,137.285183 C110.950043,137.801902 113.339619,136.250094 113.856338,133.819122 L129.952056,58.0947194 L129.966326,58.0109891 L106.289223,52.9792857 C103.166246,52.3154765 101.137427,49.3648633 101.787799,46.3051036 L106.654326,23.4079891 L53.3454605,12.0778644 C50.9144885,11.5611454 48.5249127,13.112954 48.0081937,15.543926 Z M62.4739826,86.0639474 C63.9448905,87.7748375 65.8125277,89.3127749 68.0833313,90.6757852 C70.3449463,92.0332802 72.7515264,92.9824545 75.3093556,93.5261378 C77.857063,94.0676698 80.4394133,94.1788985 83.0632562,93.8595662 C85.6958335,93.5391708 88.0234905,92.8937844 90.0513714,91.9281373 L90.0513714,91.9281373 L91.3411607,94.6367243 C89.0087134,95.7474014 86.3685594,96.4794334 83.4256941,96.8375922 C80.4740943,97.1968139 77.5585081,97.0712317 74.6856205,96.4605806 C71.8024764,95.8477494 69.0850276,94.7759661 66.5394041,93.248 C64.0029693,91.7255492 61.8874375,89.9834787 60.1991263,88.0197155 L60.1991263,88.0197155 Z M99.2849586,73.0013713 C101.139373,73.3955392 102.58661,74.3900372 103.626714,75.9848953 C104.666819,77.5797533 104.989782,79.3043635 104.595614,81.1587776 C104.201446,83.0131917 103.204942,84.4573404 101.606073,85.4912672 C100.007203,86.525194 98.280587,86.8450687 96.4261729,86.4509008 C94.5819479,86.0588987 93.1398049,85.0654835 92.0997006,83.4706255 C91.0595964,81.8757675 90.7366331,80.1511573 91.130801,78.2967432 C91.5271346,76.43214 92.5216327,74.9849026 94.1143249,73.9549874 C95.7070172,72.9250723 97.4305445,72.6072034 99.2849586,73.0013713 Z M94.7718533,74.9573493 C93.4437073,75.8198573 92.6172149,77.0152751 92.2923513,78.5436383 L97.8555657,79.7261361 L99.0413121,74.147638 C97.5231379,73.8249402 96.0999992,74.0948412 94.7718533,74.9573493 Z M63.2615358,65.3443564 C65.1159499,65.7385243 66.5631873,66.7330223 67.6032915,68.3278804 C68.6433957,69.9227384 68.9663591,71.6473486 68.5721912,73.5017627 C68.1780233,75.3561768 67.1815195,76.8003255 65.5826498,77.8342523 C63.9837801,78.8681791 62.2571641,79.1880538 60.40275,78.7938859 C58.558525,78.4018838 57.116382,77.4084686 56.0762778,75.8136106 C55.0361736,74.2187526 54.7132102,72.4941424 55.1073781,70.6397283 C55.5037118,68.7751251 56.4982098,67.3278877 58.0909021,66.2979725 C59.6835943,65.2680574 61.4071217,64.9501885 63.2615358,65.3443564 Z M58.7484304,67.3003344 C57.4202844,68.1628424 56.593792,69.3582602 56.2689284,70.8866234 L61.8321429,72.0691212 L63.0178892,66.4906231 C61.4997151,66.1679252 60.0765763,66.4378263 58.7484304,67.3003344 Z M109.407888,24.8823592 L104.722241,46.9288386 C104.42393,48.3322834 105.376987,49.7183623 106.912958,50.0448429 L128.989326,54.7369891 L109.530404,25.0573465 C109.491242,24.997615 109.450377,24.9392677 109.407888,24.8823592 Z"/>
    <path fill="#15EB99" stroke="#1A1A1A" stroke-linecap="round" stroke-linejoin="round" stroke-width="3" d="M139.052693,127.213867 L104.551634,104.423899 C104.036803,104.083823 103.892184,103.379735 104.228618,102.851274 C104.373013,102.624462 104.591203,102.456873 104.844274,102.378396 L145.064377,89.9061224 C145.65402,89.7232738 146.273734,90.0624467 146.448548,90.6636862 C146.531335,90.9484172 146.501426,91.2557415 146.365233,91.5197762 L137.586352,108.539232 L140.756885,126.042332 C140.868675,126.659475 140.46904,127.255881 139.864274,127.374441 C139.582873,127.429607 139.292247,127.372106 139.052693,127.213867 Z" transform="rotate(9 125.27 108.626)"/>
    <path fill="#EBBDFF" stroke="#1A1A1A" stroke-linecap="round" stroke-linejoin="round" stroke-width="3" d="M1.35921716,95.6192309 L41.5742349,105.234738 C42.1743306,105.378223 42.5510408,105.990387 42.4156406,106.602044 C42.3575279,106.864563 42.209815,107.096672 41.9988474,107.256971 L8.47008207,132.73316 C7.97853681,133.106651 7.2801916,132.999888 6.9102844,132.494697 C6.73510618,132.255452 6.65810009,131.956433 6.69577439,131.66174 L9.12422768,112.666129 L0.158488323,97.3029817 C-0.15763554,96.761291 0.0139165207,96.0641697 0.541660576,95.7459177 C0.787223262,95.597833 1.07998878,95.5524667 1.35921716,95.6192309 Z"/>
    <path fill="#17E4F8" stroke="#1A1A1A" stroke-linecap="round" stroke-linejoin="round" stroke-width="3" d="M11.0148437,31.215433 C10.7335611,31.1579349 10.4873981,30.993091 10.327426,30.7551014 C9.98362657,30.2436329 10.1227638,29.5393254 10.6381977,29.1819866 L25.2566637,19.0473318 L31.0836299,0.805152472 C31.1740277,0.522148803 31.3701901,0.283689009 31.6300647,0.140893105 C32.1788172,-0.16063543 32.856853,0.0377375569 33.1445001,0.583971574 L52.7651787,37.8431082 C52.8886347,38.0775478 52.9244149,38.3503354 52.8661376,38.6128179 C52.730354,39.2243908 52.1302271,39.619995 51.5257165,39.4964245 L11.0148437,31.215433 Z"/>
  </g>
</svg>
