<?xml version="1.0" encoding="iso-8859-1"?>
<!-- Generator: Adobe Illustrator 16.0.0, SVG Export Plug-In . SVG Version: 6.00 Build 0)  -->
<!DOCTYPE svg PUBLIC "-//W3C//DTD SVG 1.1//EN" "http://www.w3.org/Graphics/SVG/1.1/DTD/svg11.dtd">
<svg version="1.1" id="Capa_1" xmlns="http://www.w3.org/2000/svg" xmlns:xlink="http://www.w3.org/1999/xlink" x="0px" y="0px"
	 width="156.681px" height="156.681px" viewBox="0 0 156.681 156.681" style="enable-background:new 0 0 156.681 156.681;"
	 xml:space="preserve">
<g>
	<g>
		<g>
			<path d="M71.313,68.171c-1.72,0-3.285-0.487-4.734-1.193v7.03c0,1.288-0.365,2.475-0.91,3.565
				c1.771-1.422,3.924-2.394,6.36-2.394h13.305c2.502,0,4.713,1.002,6.503,2.497v-9.664c0-0.722,0.305-1.339,0.414-2.03
				c-1.79,1.278-3.854,2.188-6.205,2.188H71.313z"/>
			<path d="M96.934,43.845v13.427c0,0.237-0.116,0.43-0.128,0.655c1.468-1.203,3.221-1.994,5.078-2.521v-7.015
				C99.655,47.651,97.841,45.991,96.934,43.845z"/>
			<path d="M95.648,97.941v0.864c0,5.699-4.628,10.327-10.327,10.327H72.023c-5.697,0-10.324-4.64-10.324-10.327V85.507
				c0-1.894,0.648-3.562,1.541-5.09c-1.373,1.041-2.993,1.766-4.847,1.766h-7.843c-4.509,0-8.181-3.678-8.181-8.184v-7.843
				c0-4.515,3.672-8.181,8.181-8.181h7.843c0.801,0,1.535,0.244,2.265,0.463c-0.042-0.398-0.237-0.755-0.237-1.166V42.536
				c0-3.005,1.236-5.736,3.218-7.706h-0.767c-4.509,0-8.181-3.666-8.181-8.181V18.8c0-4.509,3.672-8.181,8.181-8.181h7.836
				c4.515,0,8.181,3.671,8.181,8.181v7.843c0,1.915-0.762,3.604-1.87,4.999h9.021c4.871,0,8.854,3.276,10.242,7.696v-6.527
				c0-3.599,2.362-6.561,5.596-7.66v-7.943c0-8.403-6.875-15.281-15.277-15.281H15.284C6.872,1.927,0,8.805,0,17.208V139.47
				c0,8.402,6.878,15.283,15.284,15.283h71.316c8.415,0,15.283-6.881,15.283-15.283v-38.223
				C99.516,100.645,97.317,99.628,95.648,97.941z M37.984,48.372v-6.378c0-4.189,3.413-7.6,7.603-7.6h6.372
				c4.195,0,7.605,3.41,7.605,7.6v6.378c0,4.192-3.41,7.603-7.605,7.603h-6.372C41.397,55.975,37.984,52.564,37.984,48.372z"/>
		</g>
		<g>
			<path d="M96.928,88.686c0,4.47,3.653,8.129,8.135,8.129h20.667c4.469,0,8.129-3.659,8.129-8.129V68.013
				c0-4.469-3.66-8.135-8.129-8.135h-20.667c-4.476,0-8.135,3.659-8.135,8.135V88.686z"/>
			<path d="M47.462,74.008c0,1.696,1.392,3.084,3.087,3.084h7.843c1.699,0,3.087-1.388,3.087-3.084v-7.846
				c0-1.696-1.389-3.087-3.087-3.087h-7.843c-1.696,0-3.087,1.385-3.087,3.087V74.008z"/>
			<path d="M43.087,48.372c0,1.386,1.121,2.506,2.506,2.506h6.372c1.379,0,2.512-1.126,2.512-2.506v-6.378
				c0-1.376-1.133-2.506-2.512-2.506h-6.372c-1.385,0-2.506,1.13-2.506,2.506V48.372z"/>
			<path d="M145.287,71.962c0,1.385,1.121,2.506,2.509,2.506h6.369c1.377,0,2.516-1.121,2.516-2.506v-6.379
				c0-1.379-1.139-2.508-2.516-2.508h-6.369c-1.388,0-2.509,1.129-2.509,2.508V71.962z"/>
			<path d="M122.478,23.781c0,1.084,0.883,1.97,1.967,1.97h5.005c1.078,0,1.974-0.886,1.974-1.97v-5.008
				c0-1.083-0.896-1.97-1.974-1.97h-5.005c-1.084,0-1.967,0.886-1.967,1.97V23.781z"/>
			<path d="M101.385,40.66c0,1.696,1.389,3.087,3.087,3.087h7.837c1.699,0,3.094-1.391,3.094-3.087v-7.843
				c0-1.699-1.395-3.087-3.094-3.087h-7.843c-1.692,0-3.087,1.388-3.087,3.087v7.843H101.385z"/>
			<path d="M59.784,26.644c0,1.695,1.391,3.087,3.087,3.087h7.836c1.696,0,3.093-1.392,3.093-3.087V18.8
				c0-1.699-1.392-3.087-3.093-3.087h-7.836c-1.696,0-3.087,1.389-3.087,3.087V26.644z"/>
			<path d="M129.846,48.266c0,2.883,2.351,5.234,5.23,5.234h13.299c2.88,0,5.23-2.351,5.23-5.234V34.967
				c0-2.88-2.351-5.23-5.23-5.23h-13.293c-2.88,0-5.23,2.351-5.23,5.23v13.299H129.846z"/>
			<path d="M66.792,98.806c0,2.881,2.351,5.23,5.231,5.23h13.298c2.887,0,5.237-2.35,5.237-5.23V85.507
				c0-2.886-2.351-5.236-5.237-5.236H72.023c-2.88,0-5.231,2.351-5.231,5.236V98.806z"/>
			<path d="M65.514,57.271c0,3.191,2.606,5.803,5.8,5.803h14.732c3.185,0,5.803-2.612,5.803-5.803V42.536
				c0-3.179-2.618-5.791-5.803-5.791H71.313c-3.188,0-5.8,2.612-5.8,5.791V57.271z"/>
		</g>
	</g>
</g>
<g>
</g>
<g>
</g>
<g>
</g>
<g>
</g>
<g>
</g>
<g>
</g>
<g>
</g>
<g>
</g>
<g>
</g>
<g>
</g>
<g>
</g>
<g>
</g>
<g>
</g>
<g>
</g>
<g>
</g>
</svg>
