<svg id="Capa_1" enable-background="new 0 0 512 512" height="512" viewBox="0 0 512 512" width="512" xmlns="http://www.w3.org/2000/svg"><path d="m241 512v-80.384c-7.456 3.211-15.522 4.884-23.73 4.884-16.454 0-31.803-6.529-43.221-18.385-11.413-11.852-17.356-27.449-16.736-43.92.557-14.783 6.594-28.813 16.999-39.508 10.412-10.702 24.277-17.117 39.042-18.062 9.582-.616 18.999 1.02 27.646 4.753v-50.378h-58.724c-8.995 0-17.308-4.865-21.694-12.697-4.429-7.908-4.227-17.641.528-25.402 3.231-5.274 4.728-11.371 4.327-17.63-.968-15.117-13.602-27.407-28.761-27.979-8.258-.308-16.055 2.661-21.98 8.367-5.929 5.71-9.195 13.385-9.195 21.611 0 5.587 1.544 11.034 4.465 15.752 4.735 7.646 4.953 17.286.569 25.157-4.406 7.908-12.761 12.821-21.806 12.821h-88.729v221c0 11.046 8.954 20 20 20z"/><path d="m271 0v80.384c7.456-3.211 15.522-4.884 23.73-4.884 16.454 0 31.803 6.529 43.221 18.385 11.413 11.852 17.356 27.449 16.736 43.92-.557 14.783-6.594 28.813-16.999 39.508-10.412 10.702-24.277 17.117-39.042 18.062-9.583.614-19-1.02-27.646-4.753v50.378h58.724c8.995 0 17.308 4.865 21.694 12.697 4.429 7.908 4.227 17.641-.528 25.402-3.231 5.274-4.728 11.371-4.327 17.63.968 15.117 13.602 27.407 28.761 27.979 8.253.309 16.055-2.661 21.98-8.367 5.929-5.71 9.195-13.385 9.195-21.611 0-5.587-1.544-11.034-4.465-15.752-4.735-7.646-4.953-17.286-.569-25.157 4.405-7.908 12.76-12.821 21.805-12.821h88.73v-221c0-11.046-8.954-20-20-20z"/><path d="m431.616 271c3.211 7.456 4.884 15.522 4.884 23.73 0 16.454-6.529 31.803-18.385 43.221-11.289 10.871-25.977 16.78-41.581 16.78-.778 0-1.557-.015-2.339-.044-14.783-.557-28.813-6.594-39.508-16.999-10.702-10.412-17.117-24.277-18.062-39.042-.614-9.585 1.02-18.999 4.753-27.646h-50.378v58.724c0 8.995-4.865 17.308-12.697 21.694-7.909 4.429-17.642 4.227-25.402-.528-5.275-3.231-11.377-4.727-17.63-4.327-15.117.968-27.407 13.602-27.979 28.761-.311 8.249 2.661 16.055 8.367 21.98 5.71 5.929 13.385 9.195 21.611 9.195 5.587 0 11.034-1.544 15.752-4.465 7.646-4.735 17.286-4.953 25.157-.569 7.908 4.405 12.821 12.76 12.821 21.805v88.73h221c11.046 0 20-8.954 20-20v-221z"/><path d="m80.384 241c-3.211-7.456-4.884-15.522-4.884-23.73 0-16.454 6.529-31.803 18.385-43.221 11.852-11.413 27.445-17.361 43.92-16.736 14.783.557 28.813 6.594 39.508 16.999 10.702 10.412 17.117 24.277 18.062 39.042.614 9.585-1.02 18.999-4.753 27.646h50.378v-58.724c0-8.995 4.865-17.308 12.697-21.694 7.907-4.43 17.641-4.227 25.402.528 5.275 3.231 11.373 4.725 17.63 4.327 15.117-.968 27.407-13.602 27.979-28.761.311-8.249-2.661-16.055-8.367-21.98-5.71-5.929-13.385-9.195-21.611-9.195-5.587 0-11.034 1.544-15.752 4.465-7.646 4.735-17.286 4.953-25.157.569-7.908-4.406-12.821-12.761-12.821-21.806v-88.729h-221c-11.046 0-20 8.954-20 20v221z"/></svg>