<svg xmlns="http://www.w3.org/2000/svg" width="50.002" height="50" viewBox="0 0 50.002 50"><path d="M-17550-2476a24.847,24.847,0,0,1-9.73-1.964,24.883,24.883,0,0,1-7.945-5.357,24.853,24.853,0,0,1-5.357-7.946A24.817,24.817,0,0,1-17575-2501a24.811,24.811,0,0,1,1.967-9.731,24.825,24.825,0,0,1,5.357-7.947,24.886,24.886,0,0,1,7.945-5.358A24.839,24.839,0,0,1-17550-2526a24.839,24.839,0,0,1,9.73,1.965,24.943,24.943,0,0,1,7.947,5.358,24.825,24.825,0,0,1,5.357,7.947A24.811,24.811,0,0,1-17525-2501a24.815,24.815,0,0,1-1.967,9.732,24.821,24.821,0,0,1-5.357,7.946,24.94,24.94,0,0,1-7.947,5.357A24.847,24.847,0,0,1-17550-2476Zm-.035-31.859a3.02,3.02,0,0,1,2.2.842,2.871,2.871,0,0,1,.855,2.126,6.019,6.019,0,0,1-.824,2.774,20.32,20.32,0,0,1-3.32,4.067l-6.891,7.022V-2489h15.424v-3.921h-7.934l2.5-2.633a23.252,23.252,0,0,0,4.129-5.4,9.7,9.7,0,0,0,1.129-4.27,6.494,6.494,0,0,0-.932-3.277,6.422,6.422,0,0,0-2.482-2.466,7.359,7.359,0,0,0-3.582-.856,7.377,7.377,0,0,0-5.381,2.064,8.2,8.2,0,0,0-2.262,5.672h4.133a4.233,4.233,0,0,1,.969-2.757A2.942,2.942,0,0,1-17550.037-2507.861Z" transform="translate(17575.002 2526.002)"/></svg>