<svg xmlns="http://www.w3.org/2000/svg" width="50.002" height="50" viewBox="0 0 50.002 50"><path d="M-17550-2476a24.847,24.847,0,0,1-9.73-1.964,24.883,24.883,0,0,1-7.945-5.357,24.853,24.853,0,0,1-5.357-7.946A24.817,24.817,0,0,1-17575-2501a24.811,24.811,0,0,1,1.967-9.731,24.825,24.825,0,0,1,5.357-7.947,24.886,24.886,0,0,1,7.945-5.358A24.839,24.839,0,0,1-17550-2526a24.839,24.839,0,0,1,9.73,1.965,24.943,24.943,0,0,1,7.947,5.358,24.825,24.825,0,0,1,5.357,7.947A24.811,24.811,0,0,1-17525-2501a24.815,24.815,0,0,1-1.967,9.732,24.821,24.821,0,0,1-5.357,7.946,24.94,24.94,0,0,1-7.947,5.357A24.847,24.847,0,0,1-17550-2476Zm-7.758-19.734h0a7.782,7.782,0,0,0,2.24,5.337,7.355,7.355,0,0,0,5.285,1.958,7.914,7.914,0,0,0,5.633-2.082,6.729,6.729,0,0,0,2.209-5.077,5.75,5.75,0,0,0-1.143-3.551,6.047,6.047,0,0,0-3.172-2.113,5.787,5.787,0,0,0,2.352-1.98,4.776,4.776,0,0,0,.813-2.713,5.5,5.5,0,0,0-1.854-4.128,6.5,6.5,0,0,0-4.6-1.742,6.841,6.841,0,0,0-5.1,2.091,6.78,6.78,0,0,0-1.768,3.965h4.07a2.794,2.794,0,0,1,1.014-1.434,2.721,2.721,0,0,1,1.65-.551,2.334,2.334,0,0,1,1.668.6,1.991,1.991,0,0,1,.635,1.5,2.343,2.343,0,0,1-.42,1.319,2.836,2.836,0,0,1-1.164.975,6.812,6.812,0,0,1-2.275.477v3.634a6.15,6.15,0,0,1,3.8,1.072,3.172,3.172,0,0,1,1.314,2.558,3.141,3.141,0,0,1-.975,2.333,3.391,3.391,0,0,1-2.461.953,3.356,3.356,0,0,1-2.352-.838,4.213,4.213,0,0,1-1.2-2.567h-4.2Z" transform="translate(17575.002 2526.002)"/></svg>