<svg height="432pt" viewBox="0 0 432 432" width="432pt" xmlns="http://www.w3.org/2000/svg"><path d="m304 384h48v48h-48zm0 0"/><path d="m144 40h16c4.417969 0 8 3.582031 8 8v16c0 4.417969-3.582031 8-8 8h-16c-4.417969 0-8-3.582031-8-8v-16c0-4.417969 3.582031-8 8-8zm0 0"/><path d="m144 128h16c4.417969 0 8 3.582031 8 8v16c0 4.417969-3.582031 8-8 8h-16c-4.417969 0-8-3.582031-8-8v-16c0-4.417969 3.582031-8 8-8zm0 0"/><path d="m144 216h16c4.417969 0 8 3.582031 8 8v16c0 4.417969-3.582031 8-8 8h-16c-4.417969 0-8-3.582031-8-8v-16c0-4.417969 3.582031-8 8-8zm0 0"/><path d="m224 176v256h64v-56c0-4.417969 3.582031-8 8-8h64c4.417969 0 8 3.582031 8 8v56h64v-256zm88 152c0 13.253906-10.746094 24-24 24h-16c-13.253906 0-24-10.746094-24-24v-16c0-13.253906 10.746094-24 24-24h16c13.253906 0 24 10.746094 24 24zm0-88c0 13.253906-10.746094 24-24 24h-16c-13.253906 0-24-10.746094-24-24v-16c0-13.253906 10.746094-24 24-24h16c13.253906 0 24 10.746094 24 24zm96 88c0 13.253906-10.746094 24-24 24h-16c-13.253906 0-24-10.746094-24-24v-16c0-13.253906 10.746094-24 24-24h16c13.253906 0 24 10.746094 24 24zm0-88c0 13.253906-10.746094 24-24 24h-16c-13.253906 0-24-10.746094-24-24v-16c0-13.253906 10.746094-24 24-24h16c13.253906 0 24 10.746094 24 24zm0 0"/><path d="m368 216h16c4.417969 0 8 3.582031 8 8v16c0 4.417969-3.582031 8-8 8h-16c-4.417969 0-8-3.582031-8-8v-16c0-4.417969 3.582031-8 8-8zm0 0"/><path d="m144 304h16c4.417969 0 8 3.582031 8 8v16c0 4.417969-3.582031 8-8 8h-16c-4.417969 0-8-3.582031-8-8v-16c0-4.417969 3.582031-8 8-8zm0 0"/><path d="m368 304h16c4.417969 0 8 3.582031 8 8v16c0 4.417969-3.582031 8-8 8h-16c-4.417969 0-8-3.582031-8-8v-16c0-4.417969 3.582031-8 8-8zm0 0"/><path d="m272 216h16c4.417969 0 8 3.582031 8 8v16c0 4.417969-3.582031 8-8 8h-16c-4.417969 0-8-3.582031-8-8v-16c0-4.417969 3.582031-8 8-8zm0 0"/><path d="m272 304h16c4.417969 0 8 3.582031 8 8v16c0 4.417969-3.582031 8-8 8h-16c-4.417969 0-8-3.582031-8-8v-16c0-4.417969 3.582031-8 8-8zm0 0"/><path d="m48 216h16c4.417969 0 8 3.582031 8 8v16c0 4.417969-3.582031 8-8 8h-16c-4.417969 0-8-3.582031-8-8v-16c0-4.417969 3.582031-8 8-8zm0 0"/><path d="m48 128h16c4.417969 0 8 3.582031 8 8v16c0 4.417969-3.582031 8-8 8h-16c-4.417969 0-8-3.582031-8-8v-16c0-4.417969 3.582031-8 8-8zm0 0"/><path d="m80 384h48v48h-48zm0 0"/><path d="m48 304h16c4.417969 0 8 3.582031 8 8v16c0 4.417969-3.582031 8-8 8h-16c-4.417969 0-8-3.582031-8-8v-16c0-4.417969 3.582031-8 8-8zm0 0"/><path d="m0 432h64v-56c0-4.417969 3.582031-8 8-8h64c4.417969 0 8 3.582031 8 8v56h64v-432h-208zm120-384c0-13.253906 10.746094-24 24-24h16c13.253906 0 24 10.746094 24 24v16c0 13.253906-10.746094 24-24 24h-16c-13.253906 0-24-10.746094-24-24zm0 88c0-13.253906 10.746094-24 24-24h16c13.253906 0 24 10.746094 24 24v16c0 13.253906-10.746094 24-24 24h-16c-13.253906 0-24-10.746094-24-24zm0 88c0-13.253906 10.746094-24 24-24h16c13.253906 0 24 10.746094 24 24v16c0 13.253906-10.746094 24-24 24h-16c-13.253906 0-24-10.746094-24-24zm0 88c0-13.253906 10.746094-24 24-24h16c13.253906 0 24 10.746094 24 24v16c0 13.253906-10.746094 24-24 24h-16c-13.253906 0-24-10.746094-24-24zm-96-264c0-13.253906 10.746094-24 24-24h16c13.253906 0 24 10.746094 24 24v16c0 13.253906-10.746094 24-24 24h-16c-13.253906 0-24-10.746094-24-24zm0 88c0-13.253906 10.746094-24 24-24h16c13.253906 0 24 10.746094 24 24v16c0 13.253906-10.746094 24-24 24h-16c-13.253906 0-24-10.746094-24-24zm0 88c0-13.253906 10.746094-24 24-24h16c13.253906 0 24 10.746094 24 24v16c0 13.253906-10.746094 24-24 24h-16c-13.253906 0-24-10.746094-24-24zm0 88c0-13.253906 10.746094-24 24-24h16c13.253906 0 24 10.746094 24 24v16c0 13.253906-10.746094 24-24 24h-16c-13.253906 0-24-10.746094-24-24zm0 0"/><path d="m48 40h16c4.417969 0 8 3.582031 8 8v16c0 4.417969-3.582031 8-8 8h-16c-4.417969 0-8-3.582031-8-8v-16c0-4.417969 3.582031-8 8-8zm0 0"/></svg>