<svg id="Capa_1" enable-background="new 0 0 512 512" height="512" viewBox="0 0 512 512" width="512" xmlns="http://www.w3.org/2000/svg"><path d="m280.741 97.36c-53.077 0-96.258 43.181-96.258 96.257s43.181 96.257 96.258 96.257c53.076 0 96.257-43.181 96.257-96.257s-43.18-96.257-96.257-96.257zm40.001 111.257h-40c-8.284 0-15-6.716-15-15v-60c0-8.284 6.716-15 15-15s15 6.716 15 15v45h25c8.284 0 15 6.716 15 15s-6.716 15-15 15z"/><path d="m278.5 0c-29.743 0-59.006 6.64-84.583 19.18-33.737 15.91-62.311 40.84-82.636 72.1-20.884 32.14-31.93 69.46-31.93 107.92v31.83l-39.44 71.96c-5.653 10.72-5.883 22.33-.629 31.05 4.744 7.89 13.453 12.41 23.87 12.41h16.2v69.94c0 24.13 19.525 43.76 43.524 43.76l.39-.03 53.463-8.17v51.54c0 4.7 3.806 8.51 8.5 8.51h153.186c41.128 0 74.596-33.49 74.596-74.66v-92.47c40.359-37.64 63.49-90.66 63.49-145.68-.43-109.83-89.248-199.19-198.001-199.19zm2.241 319.875c-69.619 0-126.258-56.639-126.258-126.257s56.639-126.258 126.258-126.258 126.258 56.639 126.258 126.257-56.639 126.258-126.258 126.258z"/></svg>