<svg height="512pt" viewBox="0 0 512 512.00101" width="512pt" xmlns="http://www.w3.org/2000/svg"><path d="m143.261719 383.785156c-6.273438-4.523437-13.144531-8.265625-20.476563-11.078125 16.625-10.671875 27.667969-29.308593 27.667969-50.484375 0-33.070312-26.902344-59.972656-59.972656-59.972656-33.070313 0-59.972657 26.902344-59.972657 59.972656 0 21.175782 11.042969 39.8125 27.664063 50.484375-33.980469 13.035157-58.171875 46-58.171875 84.515625v54.777344h135.511719v-85.707031c0-14.6875 2.652343-29.03125 7.75-42.507813zm0 0"/><path d="m453.804688 372.707031c16.621093-10.671875 27.664062-29.308593 27.664062-50.484375 0-33.070312-26.902344-59.972656-59.972656-59.972656-33.066406 0-59.972656 26.902344-59.972656 59.972656 0 21.175782 11.042968 39.8125 27.667968 50.484375-7.332031 2.8125-14.203125 6.554688-20.476562 11.078125 5.097656 13.476563 7.75 27.820313 7.75 42.507813v85.707031h135.511718v-54.78125c0-38.511719-24.191406-71.476562-58.171874-84.511719zm0 0"/><path d="m188.027344 209.160156 67.960937-35.726562 67.960938 35.726562-12.976563-75.675781 54.980469-53.59375-75.984375-11.039063-33.980469-68.851562-33.980469 68.851562-75.984374 11.039063 54.984374 53.59375zm0 0"/><path d="m288.296875 341.78125c16.621094-10.675781 27.664063-29.3125 27.664063-50.488281 0-33.070313-26.902344-59.972657-59.972657-59.972657-33.066406 0-59.972656 26.902344-59.972656 59.972657 0 21.175781 11.046875 39.8125 27.667969 50.488281-33.984375 13.03125-58.175782 45.996094-58.175782 84.511719v85.707031h180.960938v-85.707031c0-38.515625-24.191406-71.480469-58.171875-84.511719zm0 0"/></svg>