<?xml version='1.0' encoding='iso-8859-1'?>
<svg version="1.1" xmlns="http://www.w3.org/2000/svg" viewBox="0 0 19.898 19.898" xmlns:xlink="http://www.w3.org/1999/xlink" enable-background="new 0 0 19.898 19.898">
  <g>
    <path d="m18.436,10.388c-0.135-0.277-0.135-0.601 0-0.878l.922-1.887c0.237-0.485 0.047-1.07-0.43-1.323l-1.855-.984c-0.273-0.145-0.463-0.407-0.516-0.711l-.363-2.069c-0.093-0.531-0.591-0.893-1.125-0.817l-2.08,.294c-0.305,0.043-0.614-0.057-0.835-0.271l-1.51-1.46c-0.388-0.375-1.003-0.375-1.391,0l-1.51,1.46c-0.222,0.214-0.53,0.315-0.835,0.271l-2.08-.294c-0.533-0.076-1.031,0.286-1.124,0.817l-.363,2.069c-0.053,0.304-0.244,0.566-0.516,0.711l-1.856,.984c-0.476,0.253-0.666,0.838-0.429,1.323l.922,1.887c0.135,0.277 0.135,0.601 0,0.878l-.922,1.887c-0.237,0.485-0.047,1.07 0.43,1.323l1.855,.984c0.272,0.145 0.463,0.407 0.516,0.711l.363,2.069c0.093,0.531 0.591,0.893 1.125,0.817l2.08-.294c0.305-0.043 0.614,0.057 0.835,0.271l1.51,1.46c0.388,0.375 1.003,0.375 1.391,0l1.51-1.46c0.222-0.214 0.53-0.315 0.835-0.271l2.08,.294c0.534,0.076 1.032-0.286 1.125-0.817l.363-2.069c0.053-0.304 0.244-0.566 0.516-0.711l1.855-.984c0.476-0.253 0.667-0.838 0.43-1.323l-.923-1.887zm-10.487,5.561l2.446-4.662-4-1.996 5.555-5.342-2.446,4.658 3.999,1.996-5.554,5.346z"/>
  </g>
</svg>
