<svg xmlns="http://www.w3.org/2000/svg" width="48" height="48" viewBox="0 0 48 48">
  <path fill="#1A1A1A" d="M20.0038957,3.44697917 L11.1270903,20.1904242 L7.40738288,15.0409954 C6.09441837,17.6208788 5.35945736,20.4884358 5.28181454,23.4639439 L5.27495238,23.9901175 L5.27804071,24.3529541 C5.42724865,32.9781553 11.1025064,40.3848087 19.0134619,42.622955 L19.3639147,42.7183309 L19.5400865,42.7612804 L18.9361039,45.2387196 L18.7394479,45.190596 C9.63471252,42.8104213 3.07179422,34.5075053 2.73820328,24.7710932 L2.72827907,24.3860269 L2.725,24.0011372 C2.725,19.9794536 3.78479451,16.1166378 5.75386145,12.7513939 L1.31910323,6.61228404 L20.0038957,3.44697917 Z M30.088402,3.04660878 C39.0349086,5.78784405 45.275,14.2722064 45.275,24.0011372 C45.275,27.6587306 44.3987951,31.1872253 42.7537072,34.3337519 L47.4839769,40.2480108 L28.9770716,44.3266235 L37.0213433,27.1676516 L40.991002,32.1299366 C42.1253597,29.6126601 42.725,26.8533724 42.725,24.0011372 C42.725,15.3901054 37.2138797,7.89689119 29.3413555,5.48472722 L29.3413555,5.48472722 L30.088402,3.04660878 Z"/>
</svg>
